<svg xmlns="http://www.w3.org/2000/svg" viewBox="0 0 750.19 531.14"><title>logo-sapos</title><path d="M403.37,267.28q0,20.93-5.89,37.6T380.24,331a40.78,40.78,0,0,1-26.92,9.44q-18.66,0-30.79-12.9-8.6-9.28-14-24.78a91.65,91.65,0,0,1-5.37-30.13,30.59,30.59,0,0,1,3.23-14.55q3.22-6.05,8.21-6.06,4,0,6.84,4.72t4.77,14a133.64,133.64,0,0,0,5.2,18.41,32,32,0,0,0,7.87,12.19q5.07,4.8,13.33,4.8,11.35,0,18.45-9.67t7.09-24.15q0-11.48-3.83-18.64a28.15,28.15,0,0,0-9.89-10.93,116.59,116.59,0,0,0-16.21-8A88.86,88.86,0,0,1,325.5,221.1q-9.16-7.79-14.53-21.24t-5.37-33.43q0-19,5.68-33.82t16.43-22.73q10.75-7.94,25.28-7.95,11.61,0,20.08,5.27a44.49,44.49,0,0,1,14.06,14,65.35,65.35,0,0,1,8.17,18.33,72,72,0,0,1,2.58,18.72,34.13,34.13,0,0,1-3.22,15q-3.23,6.69-8,6.69a7.25,7.25,0,0,1-6.66-4q-2.28-4-4.95-13.14-3.44-13.06-8.26-20.37t-15.48-7.32a19.11,19.11,0,0,0-16,7.95q-6.06,7.95-6.06,19.11a31.43,31.43,0,0,0,2.06,12A26.1,26.1,0,0,0,337,182.8a33,33,0,0,0,7.31,5.66q3.7,2,12.21,6a134.23,134.23,0,0,1,19.31,10.07,57.19,57.19,0,0,1,14.71,13.37q6.06,7.87,9.46,19.9t3.4,29.5"/><path d="M417.64,241.16V130.25q0-14.16,3.48-21.24t9.16-7.08q5.93,0,9.42,7.08t3.48,21.24V243.68q0,19.35,2.36,32.33t8.39,20.14q6,7.16,16.85,7.16,15,0,21.16-14.55t6.19-44.13V130.25q0-14.31,3.44-21.32t9.2-7q5.76,0,9.33,7t3.57,21.32V241.16q0,27.06-2.88,45.15a90.68,90.68,0,0,1-10.88,31.78q-6.88,11.64-16,17a41.39,41.39,0,0,1-21.33,5.35q-14.54,0-25-5.74t-17.11-17.78q-6.62-12-9.72-30.83t-3.1-44.92"/><path d="M578,237.86h-8.94V312q0,14.63-3.53,21.55t-9.2,6.92q-6.11,0-9.46-7.24T543.54,312V134.5q0-15.11,3.7-21.87t12-6.76h41.54a69.86,69.86,0,0,1,14.71,1.34,25.47,25.47,0,0,1,11,5.43,40,40,0,0,1,10.49,13.06,73.77,73.77,0,0,1,6.92,19.74,115.72,115.72,0,0,1,2.36,23.84q0,25.8-8,41.22a45.11,45.11,0,0,1-24.12,21.87q6.79,6.61,13,19.51a236.76,236.76,0,0,1,11.05,27.45q4.86,14.55,7.57,26.27t2.71,16.13a26.89,26.89,0,0,1-1.59,9,17.66,17.66,0,0,1-4.34,7.08,9,9,0,0,1-6.36,2.6,8.89,8.89,0,0,1-7.22-3.7,34.23,34.23,0,0,1-5-9.36q-2.11-5.66-5.72-16.68L608,279.55q-5.5-17.15-9.85-26.12t-8.82-12.27a18.46,18.46,0,0,0-11.27-3.3m14.62-96.91H569.08v63.4H592q9.2,0,15.48-2.91a19.71,19.71,0,0,0,9.59-9.91q3.31-7,3.31-19.27a49.26,49.26,0,0,0-2.67-16.91q-2.67-7.32-7.4-10.93-4.47-3.46-17.63-3.46"/><path d="M738.15,141.89H687.84v59h42.05a9.51,9.51,0,0,1,8.73,4.8q2.88,4.8,2.88,12.82t-2.92,12.74a9.57,9.57,0,0,1-8.69,4.72H687.84v76q0,14.48-3.57,21.48t-9.16,7q-5.68,0-9.24-7.08T662.3,312V134.5a68,68,0,0,1,1.63-16.44q1.63-6.37,5.12-9.28a13.41,13.41,0,0,1,8.9-2.91h60.2a9.86,9.86,0,0,1,9.07,5q3,5,3,13,0,8.18-3,13.14a9.86,9.86,0,0,1-9.07,5"/><path d="M316.85,477.94l0.61-44.42,18.18,0.25q10.33,0.14,13.46.85a15.3,15.3,0,0,1,8,4.46,11.89,11.89,0,0,1,3.13,8.69,12,12,0,0,1-2,6.85,13.55,13.55,0,0,1-4.82,4.31,18.76,18.76,0,0,1-5.9,2,81.49,81.49,0,0,1-11.76.47l-7.39-.1-0.23,16.75Zm11.84-36.75-0.17,12.6,6.2,0.08q6.7,0.09,9-.57a7.41,7.41,0,0,0,3.57-2.13,5.32,5.32,0,0,0-.41-7.46,8.59,8.59,0,0,0-4.53-2,68.61,68.61,0,0,0-8.15-.42Z"/><path d="M363.39,434.16l11.33,0.16-0.33,24.06a39.54,39.54,0,0,0,.32,7.43,7.21,7.21,0,0,0,3.4,4.42,14.45,14.45,0,0,0,7.46,1.76q4.82,0.07,7.29-1.46a6.13,6.13,0,0,0,3-3.79,39.79,39.79,0,0,0,.6-7.54l0.34-24.57,11.33,0.16L407.8,458.1q-0.11,8-1.07,11.29a11.66,11.66,0,0,1-3.46,5.53,17.72,17.72,0,0,1-6.65,3.53,35.65,35.65,0,0,1-10.81,1.2q-8-.11-12.17-1.64a17.72,17.72,0,0,1-6.51-3.91,11.56,11.56,0,0,1-3.11-5,43,43,0,0,1-1-11.29Z"/><polygon points="413.29 479.27 413.91 434.86 424.93 435.01 447.48 464.99 447.89 435.32 458.41 435.47 457.8 479.89 446.43 479.73 424.22 450.45 423.82 479.42 413.29 479.27"/><polygon points="476.13 480.14 476.64 443.24 460 443.01 460.1 435.49 504.68 436.11 504.58 443.62 487.97 443.39 487.46 480.3 476.13 480.14"/><path d="M549.88,481.16L537.56,481l-4.76-10.16-22.42-.31-4.77,10-12-.17,22.46-44.12,12,0.17ZM529.27,463.3l-7.5-16.59L514,463.09Z"/><polygon points="562.06 481.33 562.67 436.91 579.63 437.14 589.39 467.58 599.87 437.43 616.86 437.66 616.25 482.08 605.73 481.93 606.21 446.97 594.59 481.78 583.68 481.63 573.07 446.51 572.59 481.47 562.06 481.33"/><rect x="604.64" y="454.35" width="44.42" height="11.33" transform="matrix(0.01, -1, 1, 0.01, 158.24, 1080.46)"/><polygon points="649.36 482.54 649.87 445.63 633.22 445.4 633.33 437.89 677.91 438.5 677.81 446.02 661.2 445.79 660.69 482.69 649.36 482.54"/><path d="M723.11,483.55l-12.32-.17L706,473.23l-22.42-.31-4.77,10-12-.17,22.46-44.12,12,0.16ZM702.5,465.69L695,449.1l-7.8,16.38Z"/><path d="M205.87,344.82l-1.54-13.48q8-1.22,11.75-4.94t3.75-10q0-6.69-3.34-10.09a10.6,10.6,0,0,0-7.81-3.39,8.23,8.23,0,0,0-4.88,1.43,11.28,11.28,0,0,0-3.5,5q-1,2.43-3.53,11.09-3.25,11.14-8,15.64a22.79,22.79,0,0,1-16.27,6.32,23.53,23.53,0,0,1-11.56-3,19.63,19.63,0,0,1-8.19-8.57,29.79,29.79,0,0,1-2.81-13.51q0-12.92,6.68-19.45T174.42,291l0.72,13.86q-6.23.89-9,3.82t-2.73,8.78q0,6,2.92,9.45a6.26,6.26,0,0,0,5,2.2A6.66,6.66,0,0,0,176.3,327q2.59-2.62,5.41-12.73t5.82-15a21,21,0,0,1,8.22-7.58A27.47,27.47,0,0,1,208.62,289a27,27,0,0,1,13,3.28,20.78,20.78,0,0,1,9,9.27q3,6,3,14.93,0,13-7.09,20t-20.66,8.33"/><path d="M232.18,218.07v15.07l-18.37,6v27.43l18.37,5.66v14.7L151.3,260.2V245.55Zm-32,25.51-30,9.46,30,9.27V243.58Z"/><path d="M232.18,213.31H151.3V191.07q0-12.64,1.21-16.48a18.2,18.2,0,0,1,7.92-9.88q6.1-4,15.75-4A30.39,30.39,0,0,1,188.71,163a21.55,21.55,0,0,1,8,5.83,18.81,18.81,0,0,1,3.84,7.19,67.39,67.39,0,0,1,1.16,14.37v9h30.51v13.86ZM165,199.45h23v-7.58q0-8.19-1.27-11a9.49,9.49,0,0,0-4-4.33,12.29,12.29,0,0,0-6.29-1.57,11.63,11.63,0,0,0-7.28,2.2,9.29,9.29,0,0,0-3.59,5.57,56.59,56.59,0,0,0-.55,10v6.69Z"/><path d="M192.24,151.13q-12.36,0-20.74-3.14a39,39,0,0,1-11.09-6.39,27.08,27.08,0,0,1-7.28-8.87,32.71,32.71,0,0,1-3.2-14.79q0-15.17,11.09-24.27t30.84-9.1q19.59,0,30.65,9t11.06,24.15q0,15.31-11,24.34t-30.32,9m-0.55-14.28q13.74,0,20.83-5.38t7.09-13.67q0-8.29-7-13.6t-21.1-5.31q-13.9,0-20.74,5.17a17.22,17.22,0,0,0,.08,27.55q6.92,5.24,20.88,5.24"/><path d="M205.87,55.8l-1.54-13.48q8-1.22,11.75-4.94t3.75-10q0-6.69-3.34-10.09a10.61,10.61,0,0,0-7.81-3.39,8.23,8.23,0,0,0-4.88,1.43,11.27,11.27,0,0,0-3.5,5q-1,2.43-3.53,11.09-3.25,11.14-8,15.64a22.79,22.79,0,0,1-16.27,6.32,23.54,23.54,0,0,1-11.56-3,19.63,19.63,0,0,1-8.19-8.57,29.78,29.78,0,0,1-2.81-13.5q0-12.92,6.68-19.45T174.42,2l0.72,13.86q-6.23.89-9,3.82t-2.73,8.78q0,6,2.92,9.46a6.26,6.26,0,0,0,5,2.2A6.66,6.66,0,0,0,176.3,38q2.59-2.62,5.41-12.73t5.82-15a21,21,0,0,1,8.22-7.58A27.46,27.46,0,0,1,208.62,0a27,27,0,0,1,13,3.28,20.78,20.78,0,0,1,9,9.27q3,6,3,14.93,0,13-7.09,20T205.87,55.8"/><path d="M154.33,62.33V77.76h16.34s3-2.82,8.77-1.51a2.86,2.86,0,0,0,4.24-.91s3.33-4.84-.91-10.29a20.9,20.9,0,0,0-13.31-5.14,28.6,28.6,0,0,0-15.12,2.42"/><path d="M2.77,344.58s141,16.94,351.53,16.94c0,0,295.26,4.84,344.27,3l22.69-.61c1.82,0,10.44-.45,10.44,4.08,0,0,1.36,8.62-3.63,9.08,0,0-69,5.9-144.3,5,0,0-191-1.82-240.05-4.09,0,0-223.71-6.81-254.12-9.07,0,0-32.67-1.82-41.29-3.18,0,0-29.95-5.45-45.83-15.88,0,0-5.75-4.69.31-5.3"/><path d="M303,478.3c-1.62-21.63-13.61-39.63-13.61-39.63C280.9,428.08,278.78,413,278.78,413c-1.91-9-2.06-12.56-2.23-21.78l-0.1-10.59V3.94h-11.9V371.51h-0.4s0.3,27.23-2.72,41.45c0,0-2.12,15.13-10.59,25.72a90.63,90.63,0,0,0-13.61,39.63s-1.51,29,3.93,35.7c0,0,7.25,14,22.64,16.7a47.54,47.54,0,0,0,12.61,0C291.64,527.2,299,514,299,514c5.45-6.65,3.93-35.7,3.93-35.7"/><path d="M641.39,380.28s9.08,24.81,34.79,29.34c0,0,13,.3,19.36-5.75,0,0,.91-0.91-0.91-2.42,0,0-19.36-9.07-22.08-21.18H641.39Z"/></svg>