<svg xmlns="http://www.w3.org/2000/svg" viewBox="0 0 596.31 515.59"><title>MAQUILA-SAPOS-LIGHT</title><path d="M393.94,24.19h5.16S407.65,14.82,408,12s-2.34-9.84-2.34-9.84-5.5-.59-9.6-0.59a79.59,79.59,0,0,0-8.67.59S384.69,9.9,385,12,393.94,24.19,393.94,24.19Z" style="fill:#fff"/><path d="M532.84,452.68s12.38-7.57,34.41-7.68l-21.37-18.7s-28.35,3-33,8.46c-3.37,3.95-10,12-15,27l19.87,17.48S523.28,461.17,532.84,452.68Z" style="fill:#fff"/><path d="M504.26,427.84s12.38-7.57,34.41-7.68l-21.37-18.7s-20.49,2.2-29.47,6.19L312.09,257.2,529,71.48l22.46,22.73c4.11,4.16,8.79,3,10.41-2.65l23.07-80.12c1.62-5.62-1.66-8.92-7.29-7.35l-80,22.42c-5.63,1.58-6.87,6.27-2.76,10.43l21.36,21.62L298.15,245.27,80.09,58.56l21.36-21.62c4.11-4.16,2.86-8.85-2.76-10.43l-80-22.42C13,2.52,9.76,5.82,11.38,11.44L34.45,91.56c1.62,5.62,6.3,6.81,10.41,2.65L67.32,71.48,284.22,257.2,108.49,407.66c-9-4-29.47-6.19-29.47-6.19l-21.37,18.7c22,0.11,34.41,7.68,34.41,7.68,9.56,8.49,15.09,26.56,15.09,26.56L127,436.92a85.31,85.31,0,0,0-6.82-15.44l178-152.36,178,152.36a85.38,85.38,0,0,0-6.82,15.44l19.87,17.48S494.69,436.33,504.26,427.84Z" style="fill:#fff"/><path d="M574.94,451.14s-28.35,3-33,8.47c-3.37,3.95-10,12-15,27l19.87,17.48s5.53-18.07,15.1-26.56c0,0,12.38-7.57,34.41-7.68Z" style="fill:#fff"/><path d="M50.43,426.3L29.06,445c22,0.11,34.41,7.68,34.41,7.68,9.56,8.49,15.09,26.56,15.09,26.56l19.87-17.48c-5-15-11.65-23-15-27C78.79,429.35,50.43,426.3,50.43,426.3Z" style="fill:#fff"/><path d="M21.37,451.14L0,469.84c22,0.11,34.41,7.68,34.41,7.68C44,486,49.5,504.08,49.5,504.08L69.37,486.6c-5-15-11.65-23-15-27C49.73,454.19,21.37,451.14,21.37,451.14Z" style="fill:#fff"/><path d="M287.73,187.29V202a9.22,9.22,0,0,0,18.43,0V187.29A9.22,9.22,0,0,0,287.73,187.29Z" style="fill:#fff"/><path d="M306.17,90.12V75.43a9.22,9.22,0,1,0-18.43,0V90.12A9.22,9.22,0,1,0,306.17,90.12Z" style="fill:#fff"/><path d="M257.58,139.64a9.22,9.22,0,0,0-9.22-9.22H233.68a9.22,9.22,0,0,0,0,18.44h14.69A9.22,9.22,0,0,0,257.58,139.64Z" style="fill:#fff"/><path d="M369.44,139.64a9.22,9.22,0,0,0-9.22-9.22H345.54a9.22,9.22,0,1,0,0,18.44h14.68A9.22,9.22,0,0,0,369.44,139.64Z" style="fill:#fff"/><path d="M257.69,188.86l10.75-10a9.22,9.22,0,1,0-12.56-13.5l-10.75,10A9.22,9.22,0,0,0,257.69,188.86Z" style="fill:#fff"/><path d="M339.58,112.67l10.75-10a9.22,9.22,0,1,0-12.56-13.5L327,99.18A9.22,9.22,0,1,0,339.58,112.67Z" style="fill:#fff"/><path d="M337.78,188.86a9.22,9.22,0,0,0,12.56-13.5l-10.75-10A9.22,9.22,0,1,0,327,178.86Z" style="fill:#fff"/><path d="M245.13,102.67l10.75,10a9.22,9.22,0,1,0,12.56-13.5l-10.75-10A9.22,9.22,0,0,0,245.13,102.67Z" style="fill:#fff"/><circle cx="296.64" cy="138.7" r="33.43" style="fill:#fff"/><path d="M335.5,353.19s2.81,2.65,9.37,2.5c0,0,8.75-.32,12.19-6.88,0,0,7.62-14.64-2.11-24.45,0,0-10.43-12.65-30.93-12.54,0,0-16.4-1.17-34.56,17.22,0,0-23.32,30.82-37.84,43.12,0,0-18.4,17.46-30.7,20.27L373,392.32s-1.17-3.75-6.09-5.86c0,0-4.8-3.16-19.92-5.86,0,0-16.64-2.58-21.79-9.37a23.57,23.57,0,0,1-6.09-20.86s1.8-9.84,10-11.25c0,0,5.78-1.41,7,2.34a5,5,0,0,1-.47,5.94A4.22,4.22,0,0,0,335.5,353.19Z" style="fill:#fff"/><path d="M464.18,180.6H464l-0.13,0c-0.33.07-8.18,1.89-14.08,20.53-0.17.4-17,40.7-9.7,80.12,0.19,1.74,4.81,42.77,16,53a7.1,7.1,0,0,0,5.6,2.69,8.43,8.43,0,0,0,3-.58l0.16-.06,0.13-.12c0.09-.09,2.3-2.17,2.92-7.86V189.69C468,188.8,468.44,181,464.18,180.6Z" style="fill:#fff"/><path d="M477.44,180.62l-0.13,0h-0.13c-4.26.38-3.8,8.2-3.74,9V328.45c0.61,5.59,2.82,7.67,2.91,7.76l0.13,0.12,0.16,0.06a8.43,8.43,0,0,0,3,.58,7.1,7.1,0,0,0,5.6-2.69C496.4,324,501,283,501.2,281.34c7.26-39.49-9.52-79.78-9.66-80.1C485.62,182.5,477.77,180.69,477.44,180.62Z" style="fill:#fff"/><path d="M108.1,292.4c-2,.06-4.09.16-6.24,0.33,0,0-27.18,3.75-34.68,23.12-0.41,1.05,62.18-5,95.92,2.5,0,0-3.23-17.88-30.11-24.11a69.87,69.87,0,0,1,3.24-28.69s3.08-8.63,2.75-23c6.15,7.1,11.94,17.66,11.94,17.66a41.08,41.08,0,0,0,5.16,7.5c2.58,4.22,6.56-1.41,6.56-1.41,3.51-3.75,1.64-10.31,1.64-10.31a37.53,37.53,0,0,0-8.8-16.39c3.77,3.87,10.2,9.13,10.2,9.13a18.78,18.78,0,0,0,12.18,1.4c5.39-.94,2.81-6.09,2.81-6.09-3.22-9.24-19.33-15.47-19.33-15.47,13.11,4.51,17,4.7,17,4.7,5.16,0,5.62-3.28,5.62-3.28-0.23-5.86-10.31-13.12-10.31-13.12-10.15-7.42-21.33-3.55-21.33-3.55a32.84,32.84,0,0,0,12-7c5.16-4,.23-6.56.23-6.56-5.62-3-13.36-.24-13.36-0.24a64.65,64.65,0,0,0-15.94,7.5C131.7,208.14,131,206,131,206a20.94,20.94,0,0,0-3.28-3.75,21.26,21.26,0,0,0-11-4.69,25.75,25.75,0,0,0-12.89,2.34c-4.69,2.11-2.11,4.92-2.11,4.92,4.65,4.34,10.94,6.91,15.14,8.25a44,44,0,0,0-16.08-.52c-13.59,2.11-20.18,10.76-20.39,11-7.5,9.14-3.51,12.42-3.51,12.42,5.39,3.75,19.68-3.75,19.68-3.75a77.7,77.7,0,0,1,8.91-4.22,60.37,60.37,0,0,1,15.9-2.74,41.7,41.7,0,0,0-7.62,3.37s-12.5,7.5-14.37,11.87c0,0-2.58,5.78,5.39,3.9,0,0,1.17,4.68,4.45,4.68,0,0,1.41.94,12.89-5.85a37.25,37.25,0,0,0,6.26-4.39c-0.17,1-.36,2-0.56,2.91C127.79,241.81,125.39,270.12,108.1,292.4Z" style="fill:#fff"/><path d="M131.1,51.32c4.71,1.92,10.75,2.9,17.94,2.9a52,52,0,0,0,15.67-2.12,23.3,23.3,0,0,0,10.26-6,12.84,12.84,0,0,0,3.61-8.89,11.6,11.6,0,0,0-2.12-7,15.64,15.64,0,0,0-5.74-4.65,41.64,41.64,0,0,0-8.6-3c-3.3-.81-7-1.56-11.09-2.22-3.21-.57-5.55-1-6.95-1.31a27,27,0,0,1-4-1.2,9,9,0,0,1-2.94-1.71,2.55,2.55,0,0,1-.88-1.94c0-1.24,1-2.37,2.95-3.36a19.57,19.57,0,0,1,8.69-1.64c3.88,0,6.69.5,8.37,1.48a13.9,13.9,0,0,1,4.45,4.23,13.62,13.62,0,0,0,3,3.09,7.61,7.61,0,0,0,4.33,1,8.09,8.09,0,0,0,5.18-1.67,5.1,5.1,0,0,0,2.2-4,8.12,8.12,0,0,0-1.64-4.65,16,16,0,0,0-5-4.29,29.64,29.64,0,0,0-8.3-3.18A51,51,0,0,0,148.85,0a54.39,54.39,0,0,0-14.7,1.78A22.21,22.21,0,0,0,124.35,7a11.17,11.17,0,0,0-3.52,8.09,10.71,10.71,0,0,0,3.36,8A22.34,22.34,0,0,0,132.86,28,91,91,0,0,0,146,31c3.82,0.61,6.91,1.2,9.19,1.75A15.18,15.18,0,0,1,160.51,35a3.9,3.9,0,0,1,1.8,3.33c0,1.76-1.16,3.22-3.55,4.47a21.89,21.89,0,0,1-10.1,2,21.94,21.94,0,0,1-7.3-1,11,11,0,0,1-4.15-2.45,18.53,18.53,0,0,1-2.82-3.84,9.42,9.42,0,0,0-3-3.4,8,8,0,0,0-4.42-1.19,8.76,8.76,0,0,0-5.24,1.51,4.77,4.77,0,0,0-2.23,4c0,2.37,1.12,4.81,3.31,7.24A22.82,22.82,0,0,0,131.1,51.32Z" style="fill:#fff"/><path d="M182.13,52.65a9.51,9.51,0,0,0,5.39,1.57c2.43,0,4.17-.52,5.31-1.58a21.42,21.42,0,0,0,3.63-5.37l3.17-6h28.16L231,47.13l0,0q0.69,1.18,1.66,2.73a11.29,11.29,0,0,0,2,2.48A7,7,0,0,0,237,53.73a9.89,9.89,0,0,0,3.26.48,9.49,9.49,0,0,0,5.58-1.64,4.94,4.94,0,0,0,2.49-4c0-1.31-.77-3.24-2.34-5.89L227.16,10.06c-0.87-1.62-1.62-2.94-2.2-3.95a15,15,0,0,0-2.25-2.93,10.35,10.35,0,0,0-3.61-2.3,17.09,17.09,0,0,0-10.82,0,10.1,10.1,0,0,0-3.62,2.35,17,17,0,0,0-2.5,3.49L181.84,43c-0.76,1.33-1.32,2.39-1.66,3.16a6.22,6.22,0,0,0-.57,2.52A4.84,4.84,0,0,0,182.13,52.65Zm22.3-20.95,9.14-17.9,9.31,17.9H204.42Z" style="fill:#fff"/><path d="M255.18,52.45a10.46,10.46,0,0,0,11.66,0A6.43,6.43,0,0,0,269.28,47V33.64h12.43c9.07,0,16-1.39,20.67-4.12A13.74,13.74,0,0,0,309.62,17a13.83,13.83,0,0,0-1.8-7,15.06,15.06,0,0,0-5.21-5.23,23.52,23.52,0,0,0-8-3,70.13,70.13,0,0,0-13-.92H263c-3.43,0-5.89.52-7.54,1.6s-2.64,3-2.64,5.62v39A6.4,6.4,0,0,0,255.18,52.45ZM269.28,24V10.44h8.89c6.29,0,10.45.7,12.36,2.06A5.59,5.59,0,0,1,293,17.2,5,5,0,0,1,291.43,21a10.07,10.07,0,0,1-4.84,2.25,40.42,40.42,0,0,1-8.42.74h-8.89Z" style="fill:#fff"/><path d="M321.66,46.7a33.56,33.56,0,0,0,11.47,5.57,56.11,56.11,0,0,0,15.39,2,56.69,56.69,0,0,0,15.34-1.9,33.17,33.17,0,0,0,11.42-5.55,23.86,23.86,0,0,0,7.05-8.66A25.78,25.78,0,0,0,384.7,27a24.49,24.49,0,0,0-4.3-14.37,27.16,27.16,0,0,0-12.58-9.41A53.21,53.21,0,0,0,348.23,0a56,56,0,0,0-15,1.85,33.66,33.66,0,0,0-11.32,5.39,24,24,0,0,0-7.18,8.62A25,25,0,0,0,312.26,27a25.8,25.8,0,0,0,2.38,11A23.72,23.72,0,0,0,321.66,46.7ZM328.93,27a17.77,17.77,0,0,1,1.46-7.33,14.5,14.5,0,0,1,4-5.31,17.79,17.79,0,0,1,6.07-3.2,26.26,26.26,0,0,1,7.8-1.11,26,26,0,0,1,10.51,2,15.11,15.11,0,0,1,6.88,5.8A16.93,16.93,0,0,1,368,27a16.83,16.83,0,0,1-2.62,9.59,15.66,15.66,0,0,1-7.05,5.74,25.54,25.54,0,0,1-9.93,1.9,26.13,26.13,0,0,1-7.76-1.1,18.33,18.33,0,0,1-6.17-3.27,14.44,14.44,0,0,1-4.11-5.43A18.18,18.18,0,0,1,328.93,27Z" style="fill:#fff"/><path d="M420.94,51.32c4.71,1.92,10.75,2.9,17.95,2.9a52,52,0,0,0,15.67-2.12,23.32,23.32,0,0,0,10.26-6,12.84,12.84,0,0,0,3.61-8.89,11.59,11.59,0,0,0-2.12-7,15.63,15.63,0,0,0-5.74-4.65,41.6,41.6,0,0,0-8.6-3c-3.31-.81-7-1.56-11.09-2.22-3.2-.57-5.54-1-6.95-1.31a27,27,0,0,1-4-1.2,9,9,0,0,1-2.94-1.71,2.55,2.55,0,0,1-.88-1.94c0-1.24,1-2.37,2.95-3.36a19.57,19.57,0,0,1,8.69-1.64c3.87,0,6.69.5,8.37,1.48a13.9,13.9,0,0,1,4.44,4.23,13.7,13.7,0,0,0,3,3.09,7.61,7.61,0,0,0,4.34,1,8.09,8.09,0,0,0,5.18-1.67,5.1,5.1,0,0,0,2.2-4,8.13,8.13,0,0,0-1.64-4.65,16,16,0,0,0-5-4.29,29.62,29.62,0,0,0-8.3-3.18A51,51,0,0,0,438.69,0,54.37,54.37,0,0,0,424,1.78,22.21,22.21,0,0,0,414.19,7a11.17,11.17,0,0,0-3.52,8.09,10.71,10.71,0,0,0,3.36,8A22.34,22.34,0,0,0,422.7,28a91,91,0,0,0,13.14,3c3.82,0.61,6.91,1.2,9.19,1.75A15.15,15.15,0,0,1,450.35,35a3.9,3.9,0,0,1,1.8,3.33c0,1.76-1.16,3.22-3.55,4.47a26.68,26.68,0,0,1-17.4,1A11.08,11.08,0,0,1,427,41.37a18.57,18.57,0,0,1-2.82-3.84,9.41,9.41,0,0,0-3-3.4,8,8,0,0,0-4.41-1.19,8.78,8.78,0,0,0-5.24,1.51,4.77,4.77,0,0,0-2.23,4c0,2.37,1.12,4.81,3.31,7.24A22.81,22.81,0,0,0,420.94,51.32Z" style="fill:#fff"/><path d="M238.06,426.68a26.26,26.26,0,0,0-6.15-2.65c-2.33-.7-5-1.36-7.85-1.94-2.26-.49-3.9-0.87-4.88-1.13a15.93,15.93,0,0,1-2.78-1,6,6,0,0,1-2-1.42,2.44,2.44,0,0,1-.6-1.67c0-1.08.65-2,2-2.85a11.22,11.22,0,0,1,5.94-1.37c2.65,0,4.57.41,5.69,1.22a10.89,10.89,0,0,1,3.08,3.62,11.14,11.14,0,0,0,2.19,2.73,5,5,0,0,0,3.29,1,5.37,5.37,0,0,0,3.9-1.55,4.85,4.85,0,0,0,1.58-3.54,8.17,8.17,0,0,0-1.16-4,12.62,12.62,0,0,0-3.55-3.79,19.08,19.08,0,0,0-6-2.82,29.89,29.89,0,0,0-8.36-1,31.94,31.94,0,0,0-10.5,1.57,15.36,15.36,0,0,0-7,4.64,10.93,10.93,0,0,0-2.5,7,10.52,10.52,0,0,0,2.39,7A15.62,15.62,0,0,0,211,429a54.25,54.25,0,0,0,9.34,2.65c2.67,0.53,4.85,1,6.45,1.51a9.47,9.47,0,0,1,3.63,1.89,3.6,3.6,0,0,1,1.23,2.86,4.49,4.49,0,0,1-2.43,3.82,12.65,12.65,0,0,1-6.93,1.7,12.43,12.43,0,0,1-5-.83,7.4,7.4,0,0,1-2.82-2.06,16.18,16.18,0,0,1-2-3.31,8,8,0,0,0-2.19-3,5.2,5.2,0,0,0-3.34-1.11,5.73,5.73,0,0,0-3.93,1.39,4.51,4.51,0,0,0-1.61,3.48,10.73,10.73,0,0,0,2.35,6.31,16.72,16.72,0,0,0,6,5,28.56,28.56,0,0,0,12.83,2.56,30.61,30.61,0,0,0,11.19-1.87,16.43,16.43,0,0,0,7.36-5.3,12.67,12.67,0,0,0,2.56-7.74,11.79,11.79,0,0,0-1.5-6.11A12.08,12.08,0,0,0,238.06,426.68Z" style="fill:#fff"/><path d="M292.3,404.4a6,6,0,0,0-4.36,1.6,6.32,6.32,0,0,0-1.67,4.74v21.84c0,3.51-.76,6.14-2.26,7.8s-4.1,2.47-7.83,2.47a13.16,13.16,0,0,1-6.33-1.24,6.38,6.38,0,0,1-3-3.37,16.46,16.46,0,0,1-.89-5.84V410.74A6.3,6.3,0,0,0,264.3,406a6.17,6.17,0,0,0-4.45-1.61,6,6,0,0,0-4.34,1.61,6.29,6.29,0,0,0-1.69,4.73v21.18a27.27,27.27,0,0,0,1.3,8.89,14.38,14.38,0,0,0,4.19,6.29,17.89,17.89,0,0,0,7.28,3.59,41.72,41.72,0,0,0,10.32,1.13,33.4,33.4,0,0,0,8.85-1.06,18.81,18.81,0,0,0,6.79-3.42,14.19,14.19,0,0,0,4.68-6.5,28.42,28.42,0,0,0,1.21-8.92V410.74A5.76,5.76,0,0,0,292.3,404.4Z" style="fill:#fff"/><path d="M354.08,418.19a12.08,12.08,0,0,0-1-4.93,11.87,11.87,0,0,0-3-4.09,14.05,14.05,0,0,0-4.51-2.66,17.8,17.8,0,0,0-4.68-1.1c-1.67-.17-3.7-0.26-6-0.26H318.06c-2.47,0-4.25.5-5.43,1.52a6.15,6.15,0,0,0-1.81,4.88v33.89a6.48,6.48,0,0,0,1.62,4.71,6,6,0,0,0,4.48,1.66,6.17,6.17,0,0,0,4.35-1.57,6.28,6.28,0,0,0,1.72-4.8V432.23h2.67a13.06,13.06,0,0,1,4.23.58,8.93,8.93,0,0,1,3.21,2.13,32.45,32.45,0,0,1,3.85,4.85l4.13,5.95c1,1.41,1.77,2.5,2.34,3.23a8.32,8.32,0,0,0,2.28,2,6.52,6.52,0,0,0,3.39.84,7.21,7.21,0,0,0,2.95-.58,5.31,5.31,0,0,0,2.12-1.65,3.79,3.79,0,0,0,.83-2.29c0-.46-0.12-1.31-1.19-3.49a38.51,38.51,0,0,0-3.13-5.15,39.59,39.59,0,0,0-4.56-5.37,21.21,21.21,0,0,0-3.29-2.68,18.28,18.28,0,0,0,7.76-3.86A11.12,11.12,0,0,0,354.08,418.19Zm-12.31.57a4.05,4.05,0,0,1-1.06,3,6.79,6.79,0,0,1-3.4,1.64,28.93,28.93,0,0,1-6,.53H323V413.72h8.56c4.24,0,6,.33,6.79.61a5.51,5.51,0,0,1,2.56,1.77A4.21,4.21,0,0,1,341.77,418.76Z" style="fill:#fff"/><path d="M371,451.82a6.14,6.14,0,0,0,4.33-1.59,6.25,6.25,0,0,0,1.74-4.79V431.87h16a6.62,6.62,0,0,0,4.07-1.09,3.86,3.86,0,0,0,1.55-3.18,3.92,3.92,0,0,0-1.52-3.18,6.44,6.44,0,0,0-4.1-1.12h-16V413.9h19.34a6.65,6.65,0,0,0,4.24-1.15,4.13,4.13,0,0,0,0-6.46,6.66,6.66,0,0,0-4.24-1.15H372.18a10.82,10.82,0,0,0-3.93.62,4.8,4.8,0,0,0-2.54,2.2,7.51,7.51,0,0,0-.77,3.59v33.89a6.26,6.26,0,0,0,1.73,4.77A6.15,6.15,0,0,0,371,451.82Z" style="fill:#fff"/><path d="M179.59,490.45a26.34,26.34,0,0,0-6.15-2.65c-2.34-.71-5-1.36-7.85-1.94-2.26-.49-3.91-0.88-4.89-1.13a15.89,15.89,0,0,1-2.78-1,6,6,0,0,1-2-1.42,2.44,2.44,0,0,1-.6-1.67c0-1.08.65-2,2-2.85a11.21,11.21,0,0,1,5.93-1.38c2.65,0,4.57.41,5.69,1.22a10.89,10.89,0,0,1,3.08,3.62,11.19,11.19,0,0,0,2.19,2.74,5,5,0,0,0,3.29,1,5.36,5.36,0,0,0,3.9-1.54,4.85,4.85,0,0,0,1.58-3.54,8.18,8.18,0,0,0-1.16-4,12.6,12.6,0,0,0-3.55-3.79,19.11,19.11,0,0,0-6-2.82,29.88,29.88,0,0,0-8.36-1,31.93,31.93,0,0,0-10.5,1.57,15.37,15.37,0,0,0-7,4.64,10.94,10.94,0,0,0-2.5,7,10.52,10.52,0,0,0,2.39,7,15.64,15.64,0,0,0,6.22,4.32,54.55,54.55,0,0,0,9.34,2.65c2.69,0.53,4.86,1,6.45,1.51a9.45,9.45,0,0,1,3.63,1.89,3.6,3.6,0,0,1,1.23,2.86,4.49,4.49,0,0,1-2.43,3.83,12.66,12.66,0,0,1-6.93,1.7,12.43,12.43,0,0,1-5-.83,7.4,7.4,0,0,1-2.82-2.06,16.3,16.3,0,0,1-2-3.31,8,8,0,0,0-2.19-3,5.21,5.21,0,0,0-3.34-1.11,5.72,5.72,0,0,0-3.93,1.39,4.51,4.51,0,0,0-1.61,3.48A10.74,10.74,0,0,0,145.3,508a16.73,16.73,0,0,0,6,5,28.54,28.54,0,0,0,12.83,2.57,30.61,30.61,0,0,0,11.19-1.87,16.43,16.43,0,0,0,7.36-5.3,12.67,12.67,0,0,0,2.56-7.74,11.78,11.78,0,0,0-1.5-6.11A12.1,12.1,0,0,0,179.59,490.45Z" style="fill:#fff"/><path d="M235,495.18a4.86,4.86,0,0,0-3.82,1.41,10,10,0,0,0-1.79,3.1,10.89,10.89,0,0,1-4.26,5.17,13.09,13.09,0,0,1-7,1.76,13.7,13.7,0,0,1-6.69-1.57,10.37,10.37,0,0,1-4.33-4.68,18.61,18.61,0,0,1-1.57-8.14c0-4.87,1.18-8.65,3.52-11.24a13.52,13.52,0,0,1,15.64-2.38,13.29,13.29,0,0,1,4.41,4.58,12.07,12.07,0,0,0,2.41,3,5.49,5.49,0,0,0,3.56,1,5.18,5.18,0,0,0,3.66-1.43,4.53,4.53,0,0,0,1.54-3.39,10.55,10.55,0,0,0-2.78-6.53,20.55,20.55,0,0,0-7.73-5.54,28,28,0,0,0-11.37-2.21,29.74,29.74,0,0,0-9.84,1.62,23.75,23.75,0,0,0-8.12,4.74,21.13,21.13,0,0,0-5.35,7.53,25.22,25.22,0,0,0-1.86,9.89,27.11,27.11,0,0,0,.74,6.41,23.11,23.11,0,0,0,2.22,5.71,22.71,22.71,0,0,0,3.59,4.85,20.68,20.68,0,0,0,5.17,3.85,23.51,23.51,0,0,0,6.23,2.15,38.41,38.41,0,0,0,7.5.68,27.84,27.84,0,0,0,9.62-1.53,20.57,20.57,0,0,0,6.86-4,17.48,17.48,0,0,0,4-5.09,11.41,11.41,0,0,0,1.29-5,4.39,4.39,0,0,0-1.65-3.48A5.67,5.67,0,0,0,235,495.18Z" style="fill:#fff"/><path d="M289.64,468.17a6,6,0,0,0-4.34,1.61,6.3,6.3,0,0,0-1.69,4.73V486.2H263.26V474.52a5.75,5.75,0,0,0-6.14-6.34,6,6,0,0,0-4.39,1.62,6.38,6.38,0,0,0-1.65,4.72v34.7a6.39,6.39,0,0,0,1.67,4.74,6,6,0,0,0,4.37,1.64,5.8,5.8,0,0,0,6.14-6.38V495.34h20.35v13.87a6.39,6.39,0,0,0,1.67,4.74,6,6,0,0,0,4.37,1.64,5.8,5.8,0,0,0,6.14-6.38v-34.7A5.75,5.75,0,0,0,289.64,468.17Z" style="fill:#fff"/><path d="M345.44,471a31.62,31.62,0,0,0-14-2.87,32.92,32.92,0,0,0-10.71,1.63,22.52,22.52,0,0,0-8.1,4.75,20.59,20.59,0,0,0-5.1,7.55,26.08,26.08,0,0,0-1.75,9.66,26.91,26.91,0,0,0,1.67,9.55,20.6,20.6,0,0,0,5,7.65,22.54,22.54,0,0,0,8.21,4.91,36.28,36.28,0,0,0,21.94,0,22.26,22.26,0,0,0,8.17-4.9,20.64,20.64,0,0,0,5-7.58,26.92,26.92,0,0,0,1.66-9.62,25,25,0,0,0-3-12.5A20.42,20.42,0,0,0,345.44,471Zm-14,6.09a15,15,0,0,1,7.23,1.71,11.38,11.38,0,0,1,4.76,5,19.66,19.66,0,0,1-.14,16.31,11.68,11.68,0,0,1-4.88,4.91,15.53,15.53,0,0,1-12.16.68,12.09,12.09,0,0,1-4.25-2.78,12.58,12.58,0,0,1-2.87-4.69,19.13,19.13,0,0,1-1-6.47,18.65,18.65,0,0,1,1-6.39,12.65,12.65,0,0,1,2.77-4.58,11.69,11.69,0,0,1,4.17-2.71A14.91,14.91,0,0,1,331.46,477.14Z" style="fill:#fff"/><path d="M404.87,471a31.62,31.62,0,0,0-14-2.87,32.92,32.92,0,0,0-10.71,1.63,22.52,22.52,0,0,0-8.1,4.75,20.59,20.59,0,0,0-5.1,7.55,26.08,26.08,0,0,0-1.75,9.66,26.89,26.89,0,0,0,1.67,9.55,20.6,20.6,0,0,0,5,7.65,22.53,22.53,0,0,0,8.21,4.91,32.94,32.94,0,0,0,11,1.72,33.28,33.28,0,0,0,11-1.67,22.26,22.26,0,0,0,8.17-4.9,20.65,20.65,0,0,0,5-7.58,26.9,26.9,0,0,0,1.66-9.62,25,25,0,0,0-3-12.5A20.41,20.41,0,0,0,404.87,471Zm-0.29,20.71a17.29,17.29,0,0,1-1.84,8.35,11.67,11.67,0,0,1-4.88,4.91,15.53,15.53,0,0,1-12.16.68,12.13,12.13,0,0,1-4.25-2.78,12.58,12.58,0,0,1-2.87-4.69,19.13,19.13,0,0,1-1-6.47,18.66,18.66,0,0,1,1-6.39,12.64,12.64,0,0,1,2.77-4.58,11.68,11.68,0,0,1,4.17-2.71,16,16,0,0,1,12.6.76,11.4,11.4,0,0,1,4.76,5A17.45,17.45,0,0,1,404.57,491.76Z" style="fill:#fff"/><path d="M463.31,506.89a7,7,0,0,0-4.41-1.25H439V474.52a5.76,5.76,0,0,0-6.14-6.35,6,6,0,0,0-4.34,1.61,6.3,6.3,0,0,0-1.69,4.73v33.92a6.18,6.18,0,0,0,1.79,4.88c1.17,1,3,1.52,5.45,1.52H458.9a7.16,7.16,0,0,0,4.42-1.2A4.22,4.22,0,0,0,463.31,506.89Z" style="fill:#fff"/></svg>